<?xml version="1.0" encoding="utf-8"?>
<!-- Generator: Adobe Illustrator 24.0.2, SVG Export Plug-In . SVG Version: 6.00 Build 0)  -->
<svg version="1.1" xmlns="http://www.w3.org/2000/svg" xmlns:xlink="http://www.w3.org/1999/xlink" x="0px" y="0px"
	 viewBox="0 0 24 24" style="enable-background:new 0 0 24 24;" xml:space="preserve">
<style type="text/css">
	.st0{fill:none;}
	.st1{fill:#f7b149;}
</style>
<g id="bounding_box">
	<rect class="st0" width="24" height="24"/>
</g>
<g id="design">
	<g>
		<path class="st1" d="M21.25,18.47H8.22l6.85-6.85l2.4-2.4c0.36-0.36,0.56-0.84,0.56-1.35c0-0.5-0.2-0.98-0.56-1.34l-2-2
			c-0.72-0.72-1.97-0.72-2.69,0L2.2,15.11c-0.14,0.15-0.23,0.34-0.23,0.55v3.59c0,0.43,0.35,0.78,0.78,0.78h18.5
			c0.43,0,0.78-0.35,0.78-0.78S21.68,18.47,21.25,18.47z M13.88,5.63c0.17-0.18,0.31-0.18,0.5,0l1.99,1.99
			c0.09,0.09,0.1,0.2,0.1,0.25c0,0.06-0.01,0.16-0.1,0.25l-1.85,1.85l-2.49-2.49L13.88,5.63z M3.53,18.47v-2.49l7.41-7.4l2.49,2.49
			l-7.41,7.4H3.53z"/>
	</g>
</g>
</svg>
