<svg width="184" height="45" viewBox="0 0 184 45" fill="none" xmlns="http://www.w3.org/2000/svg">
<path d="M180 10.45H100V13.3H180V10.45Z" fill="#F7B149"/>
<path d="M180 37.05V10.45H177V37.05H180Z" fill="#F7B149"/>
<path d="M180 35.15H12V38H180V35.15Z" fill="#F7B149"/>
<path d="M25.927 32V30.965C26.295 30.827 26.6477 30.7043 26.985 30.597C27.3224 30.4743 27.6597 30.3823 27.997 30.321L28.25 18.591L25.927 18.016V16.866H33.494V17.901C33.1567 18.0237 32.804 18.1463 32.436 18.269C32.068 18.3763 31.6847 18.4683 31.286 18.545V30.367L33.494 30.827V32H25.927ZM16.221 32V30.942C16.589 30.804 16.9494 30.6813 17.302 30.574C17.67 30.4667 18.038 30.3823 18.406 30.321L18.659 18.591L16.221 18.016V16.866H23.788V17.901C23.466 18.0237 23.1287 18.1463 22.776 18.269C22.4234 18.3763 22.0707 18.4683 21.718 18.545V30.367L23.788 30.827V32H16.221ZM20.154 25.376V23.421H29.745V25.376H20.154ZM42.7789 32.253C40.8009 32.253 39.2752 31.8083 38.2019 30.919C37.1285 30.0297 36.5919 28.78 36.5919 27.17L36.7759 18.591L34.3379 18.016V16.866H41.9279V17.901C41.6365 18.039 41.3299 18.1617 41.0079 18.269C40.6859 18.361 40.2949 18.453 39.8349 18.545V27.331C39.8349 28.2203 40.1262 28.9103 40.7089 29.401C41.3069 29.8917 42.1425 30.137 43.2159 30.137C43.9519 30.137 44.5882 30.0297 45.1249 29.815C45.6769 29.585 46.1445 29.2247 46.5279 28.734L46.7119 18.591L44.4579 18.016V16.866H51.1739V17.901C50.8519 18.039 50.5069 18.1617 50.1389 18.269C49.7709 18.3763 49.3799 18.4683 48.9659 18.545L48.9889 26.917C48.9889 28.619 48.4445 29.9377 47.3559 30.873C46.2672 31.793 44.7415 32.253 42.7789 32.253ZM62.6038 16.866H69.3888V17.901C69.0361 18.039 68.6834 18.1617 68.3308 18.269C67.9934 18.3763 67.6254 18.4683 67.2268 18.545L67.2038 32H63.8458L55.8418 19.373L56.5548 19.189V30.367L59.1768 30.827V32H52.1618V30.942C52.5144 30.804 52.8594 30.6813 53.1968 30.574C53.5494 30.4667 53.9098 30.3823 54.2778 30.321L54.5308 18.591L52.1158 18.016V16.866H57.9578L65.8698 29.332L65.2028 29.516L64.9728 18.499L62.6038 18.016V16.866ZM78.6132 32.23C76.0679 32.23 74.0976 31.563 72.7022 30.229C71.3222 28.895 70.6322 26.9937 70.6322 24.525C70.6322 22.869 70.9696 21.4507 71.6442 20.27C72.3189 19.074 73.2849 18.1617 74.5422 17.533C75.7996 16.9043 77.3099 16.59 79.0732 16.59C79.7479 16.59 80.4686 16.636 81.2352 16.728C82.0019 16.82 82.7839 16.9657 83.5812 17.165L82.5692 19.534C81.8179 19.3193 81.0512 19.1583 80.2692 19.051C79.4872 18.9283 78.6976 18.867 77.9002 18.867C77.1796 18.867 76.4512 18.9283 75.7152 19.051C74.9946 19.1737 74.2816 19.3577 73.5762 19.603L75.8302 18.568C75.2169 19.488 74.7492 20.431 74.4272 21.397C74.1206 22.363 73.9672 23.4057 73.9672 24.525C73.9672 26.365 74.3812 27.7603 75.2092 28.711C76.0526 29.6617 77.2639 30.137 78.8432 30.137C79.3952 30.137 79.9856 30.0757 80.6142 29.953C81.2429 29.8303 81.9252 29.6463 82.6612 29.401L83.5812 31.517C82.6459 31.7623 81.7642 31.9387 80.9362 32.046C80.1082 32.1687 79.3339 32.23 78.6132 32.23ZM80.4072 31.517L80.4992 25.928L77.7852 25.353V24.18H85.4672V25.238C85.1912 25.3607 84.8922 25.4757 84.5702 25.583C84.2636 25.6903 83.9339 25.79 83.5812 25.882V31.517H80.4072ZM82.2932 21.949L80.4992 17.142L83.5812 17.165V21.949H82.2932ZM99.3069 26.71H100.526V32H86.8179V30.942C87.1859 30.804 87.5463 30.6813 87.8989 30.574C88.2669 30.4667 88.6349 30.3823 89.0029 30.321L89.2559 18.591L86.8179 18.016V16.866H100.296V21.696H99.0769L98.1569 18.821H90.9579L92.3149 17.464V23.306H95.6039L96.3629 21.489H97.4669V27.124H96.3629L95.5809 25.238H92.3149V31.379L90.9579 30.045H98.3179L99.3069 26.71ZM116.721 30.321L118.791 30.827V32H113.685L112.995 27.883C112.873 27.0857 112.65 26.5413 112.328 26.25C112.006 25.9433 111.485 25.79 110.764 25.79H106.946V23.858H111.845C112.474 23.5053 112.934 23.1143 113.225 22.685C113.517 22.2557 113.662 21.765 113.662 21.213C113.662 20.4463 113.432 19.856 112.972 19.442C112.512 19.028 111.876 18.821 111.063 18.821H108.464V30.367L110.672 30.827V32H102.967V30.942C103.197 30.8193 103.496 30.712 103.864 30.62C104.232 30.5127 104.669 30.413 105.175 30.321L105.405 18.591L102.967 18.016V16.866H111.73C113.325 16.866 114.59 17.211 115.525 17.901C116.476 18.5757 116.951 19.488 116.951 20.638C116.951 21.5733 116.637 22.4167 116.008 23.168C115.38 23.904 114.559 24.433 113.547 24.755C114.329 24.9543 114.935 25.3147 115.364 25.836C115.809 26.3573 116.116 27.0857 116.284 28.021L116.721 30.321Z" fill="white"/>
<path d="M132.661 32V30.965C133.029 30.827 133.382 30.7043 133.719 30.597C134.057 30.4743 134.394 30.3823 134.731 30.321L134.984 18.591L132.661 18.016V16.866H140.228V17.901C139.891 18.0237 139.538 18.1463 139.17 18.269C138.802 18.3763 138.419 18.4683 138.02 18.545V30.367L140.228 30.827V32H132.661ZM122.955 32V30.942C123.323 30.804 123.684 30.6813 124.036 30.574C124.404 30.4667 124.772 30.3823 125.14 30.321L125.393 18.591L122.955 18.016V16.866H130.522V17.901C130.2 18.0237 129.863 18.1463 129.51 18.269C129.158 18.3763 128.805 18.4683 128.452 18.545V30.367L130.522 30.827V32H122.955ZM126.888 25.376V23.421H136.479V25.376H126.888ZM149.513 32.253C147.535 32.253 146.01 31.8083 144.936 30.919C143.863 30.0297 143.326 28.78 143.326 27.17L143.51 18.591L141.072 18.016V16.866H148.662V17.901C148.371 18.039 148.064 18.1617 147.742 18.269C147.42 18.361 147.029 18.453 146.569 18.545V27.331C146.569 28.2203 146.861 28.9103 147.443 29.401C148.041 29.8917 148.877 30.137 149.95 30.137C150.686 30.137 151.323 30.0297 151.859 29.815C152.411 29.585 152.879 29.2247 153.262 28.734L153.446 18.591L151.192 18.016V16.866H157.908V17.901C157.586 18.039 157.241 18.1617 156.873 18.269C156.505 18.3763 156.114 18.4683 155.7 18.545L155.723 26.917C155.723 28.619 155.179 29.9377 154.09 30.873C153.002 31.793 151.476 32.253 149.513 32.253ZM169.361 24.157C170.618 24.4023 171.577 24.847 172.236 25.491C172.911 26.1197 173.248 26.9093 173.248 27.86C173.248 29.148 172.727 30.16 171.684 30.896C170.641 31.632 169.192 32 167.337 32H158.85V30.942C159.095 30.8193 159.394 30.712 159.747 30.62C160.1 30.5127 160.529 30.413 161.035 30.321L161.288 18.591L158.85 18.016V16.866H167.567C169.146 16.866 170.381 17.1803 171.27 17.809C172.175 18.4377 172.627 19.2963 172.627 20.385C172.627 21.259 172.336 22.0333 171.753 22.708C171.17 23.3673 170.373 23.8503 169.361 24.157ZM164.347 31.402L162.99 30.068H168.096C168.709 29.884 169.169 29.5927 169.476 29.194C169.798 28.7953 169.959 28.3047 169.959 27.722C169.959 26.986 169.698 26.4033 169.177 25.974C168.671 25.5447 167.981 25.33 167.107 25.33H164.048V23.398H167.452C168.725 22.8153 169.361 22.0103 169.361 20.983C169.361 20.293 169.131 19.764 168.671 19.396C168.226 19.0127 167.598 18.821 166.785 18.821H162.99L164.347 17.464V31.402Z" fill="#F7B149"/>
</svg>
