<svg width="32" height="26" viewBox="0 0 32 26" fill="none" xmlns="http://www.w3.org/2000/svg">
<g clip-path="url(#clip0_33_2)">
<path d="M4 12H16V14H4V12ZM2 7H12V9H2V7Z" fill="#F7B149"/>
<path d="M29.919 12.606L26.919 5.606C26.842 5.42608 26.7139 5.27273 26.5505 5.165C26.3871 5.05727 26.1957 4.99989 26 5H23V3C23 2.73478 22.8946 2.48043 22.7071 2.29289C22.5196 2.10536 22.2652 2 22 2H6V4H21V16.556C20.5443 16.8206 20.1456 17.1728 19.8267 17.5922C19.5078 18.0117 19.2751 18.4902 19.142 19H12.858C12.6146 18.0573 12.0358 17.2358 11.23 16.6894C10.4242 16.143 9.44681 15.9092 8.481 16.0319C7.51519 16.1546 6.62727 16.6253 5.98368 17.3558C5.34009 18.0863 4.98502 19.0264 4.98502 20C4.98502 20.9736 5.34009 21.9137 5.98368 22.6442C6.62727 23.3747 7.51519 23.8454 8.481 23.9681C9.44681 24.0908 10.4242 23.857 11.23 23.3106C12.0358 22.7642 12.6146 21.9427 12.858 21H19.142C19.3595 21.8582 19.857 22.6194 20.5558 23.1632C21.2545 23.7069 22.1146 24.0021 23 24.0021C23.8854 24.0021 24.7455 23.7069 25.4442 23.1632C26.143 22.6194 26.6405 21.8582 26.858 21H29C29.2652 21 29.5196 20.8946 29.7071 20.7071C29.8946 20.5196 30 20.2652 30 20V13C30 12.8645 29.9725 12.7305 29.919 12.606V12.606ZM9 22C8.60444 22 8.21776 21.8827 7.88886 21.6629C7.55996 21.4432 7.30362 21.1308 7.15224 20.7654C7.00086 20.3999 6.96126 19.9978 7.03843 19.6098C7.1156 19.2219 7.30608 18.8655 7.58579 18.5858C7.86549 18.3061 8.22186 18.1156 8.60982 18.0384C8.99778 17.9613 9.39991 18.0009 9.76537 18.1522C10.1308 18.3036 10.4432 18.56 10.6629 18.8889C10.8827 19.2178 11 19.6044 11 20C10.9995 20.5303 10.7886 21.0387 10.4136 21.4136C10.0387 21.7886 9.53027 21.9995 9 22V22ZM23 7H25.34L27.484 12H23V7ZM23 22C22.6044 22 22.2178 21.8827 21.8889 21.6629C21.56 21.4432 21.3036 21.1308 21.1522 20.7654C21.0009 20.3999 20.9613 19.9978 21.0384 19.6098C21.1156 19.2219 21.3061 18.8655 21.5858 18.5858C21.8655 18.3061 22.2219 18.1156 22.6098 18.0384C22.9978 17.9613 23.3999 18.0009 23.7654 18.1522C24.1308 18.3036 24.4432 18.56 24.6629 18.8889C24.8827 19.2178 25 19.6044 25 20C24.9995 20.5303 24.7886 21.0387 24.4136 21.4136C24.0387 21.7886 23.5303 21.9995 23 22ZM28 19H26.858C26.6377 18.1434 26.1394 17.3842 25.4412 16.8413C24.743 16.2983 23.8844 16.0025 23 16V14H28V19Z" fill="#F7B149"/>
</g>
<defs>
<clipPath id="clip0_33_2">
<rect width="32" height="26" fill="white"/>
</clipPath>
</defs>
</svg>
